<svg width="72" height="64" viewBox="0 0 72 64" fill="none" xmlns="http://www.w3.org/2000/svg">
<path d="M15.5152 50.506C14.1754 50.2846 12.9806 48.7805 12.815 47.4729V30.133C12.552 29.7399 12.2062 29.5124 12.0923 28.9889C11.997 28.5441 12.1068 28.0186 12.0012 27.6855C11.8811 27.3027 9.48316 26.7213 8.9986 26.3489C7.99844 27.0896 7.51803 27.702 6.12442 27.3627C5.01865 27.0937 3.00589 24.882 3.07422 23.6738C3.12806 22.7138 4.26904 21.6752 4.25247 21.4952C4.21106 21.0276 3.09494 19.3807 3.04317 18.6731C-0.0774262 18.8014 -0.156122 16.5131 0.084083 14.0263C0.251812 12.2945 1.67855 11.9635 3.18398 11.9346C2.99761 11.4111 4.28974 9.2594 4.26282 9.09802C4.22555 8.88699 3.1612 8.00768 3.06595 7.17597C2.91271 5.83942 4.91925 3.70634 6.09543 3.30496C7.88869 2.69048 8.74182 4.34357 9.0897 4.28771C9.42102 3.88427 11.9225 3.22427 12.0074 3.09186C12.2683 2.68428 11.6202 1.44497 12.8129 0.56774C13.869 -0.208116 16.8343 -0.19984 17.8158 0.660843C18.8532 1.57118 18.319 2.71945 18.6047 3.12496C18.671 3.21807 20.398 3.78703 20.7397 3.93392C21.0213 4.05392 21.3236 4.44081 21.6322 4.28564C21.862 4.16978 22.1498 3.71875 22.5578 3.4953C23.7795 2.82703 24.5001 3.16427 25.5127 3.96703C26.6744 4.88564 27.7905 6.18494 27.3018 7.77182C27.1507 8.26423 26.2975 8.68009 26.2892 9.07526C26.2851 9.26354 26.869 10.5359 27.132 10.5628L49.5871 10.5256C50.0758 10.358 51.3099 7.43665 52.0533 7.10562L57.7934 6.33804C60.6034 3.73944 63.9973 1.21739 67.8219 0.406362C69.0375 0.147743 70.3731 -0.317771 70.9115 1.03946C72.0069 3.7953 71.7915 7.72424 71.1848 10.5815C70.9902 11.5001 70.4539 12.667 70.34 13.4552C70.0791 15.2614 72.4542 18.8573 71.922 20.4566C71.4954 21.7414 69.11 24.131 68.9194 25.3538L68.907 47.0219C69.0354 48.2426 67.4099 50.5081 66.1964 50.5081H50.1544L52.0326 55.7549C53.3496 55.8687 55.2153 55.2956 55.6626 57.0087C55.8573 57.7535 55.8324 61.0349 55.7351 61.8914C55.6067 63.0211 54.9337 63.6273 53.8031 63.679C45.4208 63.199 36.3633 64.2976 28.0597 63.679C27.1279 63.6107 26.225 63.379 26.0097 62.3197C25.8751 61.6535 25.8627 57.6066 26.0076 56.9673C26.3617 55.3928 28.507 55.819 29.679 55.757L31.5551 50.506H15.5131H15.5152ZM16.2151 2.34083H14.1982C14.7739 5.57046 11.6284 5.3015 9.67573 6.57183C8.49541 6.96493 7.56359 6.30701 6.83676 5.44219C6.62761 5.74839 5.59432 6.51597 5.54255 6.77873C5.46179 7.18838 6.70422 7.92286 6.6069 9.2325C6.58205 9.57181 5.30648 12.7311 5.08491 13.1387C4.51339 14.198 3.53807 14.378 2.4178 14.2683V16.2835C5.00415 16.1966 5.02279 17.498 5.75375 19.3786C6.2528 20.6655 7.17842 21.4745 6.20517 22.9331C6.0478 23.171 5.67714 23.3883 5.58603 23.5641C5.38309 23.9572 6.59862 24.7538 6.83468 25.1096C7.56772 24.3255 8.19723 23.8952 9.31957 24.0255C9.58876 24.0565 12.7446 25.3269 13.0966 25.5151C14.6724 26.3613 14.0533 28.0682 14.1961 28.211C14.2686 28.2813 15.9004 28.1572 16.213 28.211C16.0867 25.5027 17.7495 25.4324 19.7291 24.6772C20.721 24.2986 20.9198 23.7689 22.2679 24.0958C22.9823 24.2696 23.1397 24.9607 23.8085 25.0413C23.9887 24.7558 24.9971 23.9924 25.0344 23.7752C25.0716 23.5579 24.233 22.9021 24.0798 22.4386C23.5372 20.7897 25.2373 19.0745 25.4796 17.4152C25.96 16.538 27.2024 16.1987 28.1467 16.2856V14.2704C27.1258 14.3242 26.4259 14.3325 25.7405 13.4987C25.5251 13.2359 24.1295 10.1532 24.0342 9.78491C23.7298 8.61596 24.1771 7.67045 25.0427 6.91528C24.7569 6.7208 23.9245 5.64908 23.707 5.60977C23.4751 5.56839 22.9988 6.23459 22.6737 6.40425C20.895 7.327 19.3357 5.49184 17.5963 5.22081C16.4802 4.62702 16.1178 3.55324 16.211 2.34497L16.2151 2.34083ZM69.2238 8.53527C69.4744 6.55528 69.5117 4.49254 68.9215 2.56221C66.7907 2.89945 64.809 3.87185 63.0282 5.05115L69.2238 8.53527ZM60.9657 6.70011C60.1996 6.90286 57.665 10.1056 57.0997 10.9021C55.0145 13.8545 53.4469 17.5207 53.1301 21.1269C54.8032 22.4841 56.7932 23.5434 58.6093 24.7476C63.6246 21.7724 67.1075 16.6352 68.7269 11.0863C67.8054 10.569 61.4234 6.57804 60.9678 6.70011H60.9657ZM55.5839 9.00285C55.4286 8.88906 53.3848 9.14561 53.1819 9.31112L48.765 16.2793C48.9058 16.3911 51.9767 15.34 52.1838 15.1269C52.4757 14.8269 53.3537 12.6152 53.6995 11.9945C54.2711 10.9642 54.9586 9.99594 55.586 9.00285H55.5839ZM48.1437 12.8739H30.0083C30.7123 13.9683 30.762 16.8793 29.9358 17.8352C28.9729 18.9462 27.9997 18.3586 27.5213 18.6752C27.3184 18.8097 26.6992 21.1186 26.312 21.4993C27.0575 22.5234 27.5896 23.0117 27.3639 24.4041C27.2666 25.0082 25.0385 27.222 24.4401 27.3648C23.9949 27.4724 23.3074 27.4993 22.8705 27.3648C22.477 27.2427 21.7253 26.3489 21.4354 26.3738C20.8535 26.4234 19.3895 27.6193 18.5447 27.4393C18.8822 29.7917 17.3271 30.8468 15.128 30.5303V41.6798H66.5878V28.9806C65.6456 30.0689 64.5771 32.8372 63.2166 30.4144L62.4815 24.8014C62.1978 25.3558 60.4812 26.14 60.3093 26.502C60.1561 26.8227 60.2555 27.3751 60.1126 27.8551C59.9925 28.2627 58.5347 30.5013 58.2117 30.7579C57.9673 30.9523 57.1887 31.2792 56.8823 31.2999C56.495 31.3268 55.6605 30.9441 55.5901 30.9979C55.5632 31.0185 55.4742 31.4179 55.3416 31.6041C54.3249 33.044 53.0617 34.2254 51.4569 35.0033C50.3118 35.5578 47.6426 36.7868 47.096 35.0613C46.5969 33.4827 46.8019 30.5861 47.3237 29.0158C47.5122 28.4489 48.5683 26.7358 48.5869 26.5558C48.6138 26.2682 47.974 25.9413 47.8663 25.4655C47.5495 24.0689 48.6304 22.3352 49.5415 21.3193C49.9453 20.8703 50.7487 20.5828 50.7922 20.5207C50.8606 20.4255 51.225 18.4869 51.2437 18.2159C51.2602 17.98 51.2768 17.9428 51.0283 18.0007C49.761 18.2904 46.5017 19.8048 45.4622 19.5007C44.8244 19.3145 44.7519 18.3855 44.9714 17.8373L48.1417 12.8759L48.1437 12.8739ZM65.041 26.8124L69.6504 19.7407L68.9112 17.0573C68.2237 17.92 67.7495 18.9235 67.1138 19.8276C66.3538 20.9097 65.4882 21.9193 64.602 22.8979L65.041 26.8124ZM57.9093 26.9696L51.3223 22.7883C51.1484 23.1793 50.2041 24.2986 50.1772 24.5924C50.1399 24.9855 56.0664 28.3082 56.7497 28.9786L57.9114 26.9696H57.9093ZM49.235 33.313C51.1111 32.8516 52.7739 31.5337 53.6954 29.831L50.7011 27.7703C49.6098 28.2172 48.618 32.8909 49.235 33.3151V33.313ZM66.5899 44.0012H15.13V47.3302C15.13 47.5805 15.8921 48.375 16.2834 48.1908H65.5918C65.921 48.3026 66.5919 47.5164 66.5919 47.3302V44.0012H66.5899ZM49.5394 55.7715L47.8083 50.7646L47.5805 50.5287L34.0317 50.5784L32.0231 55.7735H49.5374L49.5394 55.7715ZM53.4138 57.9397H28.3041V61.3473H53.4138V57.9397Z" fill="white"/>
<path d="M34.6176 25.6041C35.6405 25.3807 36.1623 25.96 36.1064 26.9448C35.9138 30.311 34.3815 34.4137 33.9984 37.8461C33.6278 39.0709 31.7558 38.7316 31.7662 37.4489C32.7063 34.0434 32.8181 29.8703 33.8617 26.5579C34.0088 26.0903 34.046 25.7283 34.6176 25.6041Z" fill="white"/>
<path d="M40.2375 32.0737C40.2644 31.8854 40.2934 31.8751 40.1422 31.7572C39.4671 31.2316 38.2744 30.7578 37.5227 30.222C37.034 29.8723 36.4087 29.5165 36.5433 28.7841C36.6924 27.9751 37.5186 27.7475 38.233 27.9668C38.8418 28.153 41.687 29.9903 42.3972 30.4641C43.1427 30.9627 44.0807 31.4178 43.5693 32.5392C43.3829 32.9509 38.0714 36.0854 37.5848 36.0254C37.0609 35.9633 36.4873 35.3344 36.5225 34.7964C36.5847 33.8406 39.4216 32.5765 40.2395 32.0716L40.2375 32.0737Z" fill="white"/>
<path d="M27.9934 31.7696C27.9292 31.8378 27.9727 31.9827 28.0907 32.0903C28.8528 32.7833 33.28 34.2482 31.1741 35.7978C30.5818 36.2323 30.1656 35.9509 29.592 35.6675C28.683 35.2185 25.7508 33.5158 25.055 32.922C24.4317 32.3903 24.3779 31.5689 24.9929 31.0165C25.3967 30.6544 29.4139 28.1923 29.8964 28.0165C30.7413 27.7103 31.7766 28.0496 31.7124 29.0468C31.6503 30.0089 28.8383 31.362 27.9934 31.7696Z" fill="white"/>
<path d="M14.3228 7.0332C25.482 5.84769 26.8031 22.3827 16.4308 23.5413C5.10179 24.8075 3.65849 8.16491 14.3228 7.0332ZM14.3166 9.35042C7.5639 10.2752 7.78754 20.5683 14.4325 21.2345C23.7073 22.1634 23.2787 8.12146 14.3166 9.35042Z" fill="white"/>
<path d="M60.3506 11.0552C65.896 10.3807 66.7181 18.8158 61.3797 19.36C55.7701 19.9331 55.0329 11.7007 60.3506 11.0552ZM62.1976 13.8545C60.4458 12.1828 57.8346 14.7814 59.5119 16.5379C61.1892 18.2945 63.995 15.5697 62.1976 13.8545Z" fill="white"/>
</svg>
