<svg width="62" height="61" viewBox="0 0 62 61" fill="none" xmlns="http://www.w3.org/2000/svg">
<path d="M0.0762819 27.8552C0.642697 19.5292 5.50369 11.1612 12.1095 6.16072C24.625 -3.31461 42.7731 -1.72896 53.2281 10.0136C53.4333 10.2449 54.2241 11.1332 54.2925 11.3294C54.6345 12.3246 53.9155 13.0184 52.9317 12.689C49.065 8.21068 44.1339 4.52251 38.2891 3.11909C41.8367 6.43055 44.0111 10.767 45.5438 15.3189C46.4644 15.1209 47.3851 14.8669 48.2864 14.5953C49.314 14.2852 52.5126 12.6207 52.4635 14.5953C52.4407 15.5327 51.3833 15.6869 50.61 15.9654C49.1545 16.4876 47.6341 16.8468 46.1523 17.2813L47.3447 23.7535C47.3465 25.008 45.656 25.0816 45.3632 24.1758C45.1212 23.4259 45.0703 22.0557 44.8967 21.1937C44.6652 20.0408 44.4425 18.8844 44.1093 17.7561C39.9568 18.5305 35.7359 19.0439 31.5009 19.0561V25.1815C31.5009 25.446 30.7977 25.7421 30.4873 25.7281C30.2155 25.7176 29.5965 25.3865 29.5965 25.1815V19.0561C26.5154 19.0316 23.4396 18.7513 20.3918 18.322C19.9061 18.2537 17.1283 17.6825 16.9723 17.7964C16.1586 20.817 15.6501 23.9568 15.4326 27.0842C15.3502 28.2669 15.5326 29.5897 15.3099 30.7672C15.2818 30.9126 14.8609 31.4242 14.7768 31.4242H2.09995C2.07013 34.3309 2.76456 37.1886 3.6098 39.9481C3.47652 41.2184 2.11573 41.3656 1.60017 40.1899C0.893463 38.5797 0.195527 34.8285 0.0762819 33.0887C-0.0254273 31.5871 -0.0254273 29.3567 0.0762819 27.8552ZM29.5965 2.0468C23.0117 3.04024 19.4256 10.0591 17.572 15.7815C21.5211 16.5769 25.5597 17.0167 29.5965 17.0325V2.0468ZM31.5009 2.0468V17.0325C35.536 17.0027 39.578 16.5927 43.5254 15.7815C41.5894 10.0854 38.0454 3.13661 31.5009 2.0468ZM23.0503 2.99819C17.188 4.54354 11.9429 8.10205 8.17268 12.8082C10.512 13.9996 13.1231 14.6952 15.6693 15.3662C17.0705 10.7372 19.4308 6.25534 23.0503 2.99819ZM2.09995 29.5197H13.409C13.3984 25.39 13.9771 21.2445 15.0766 17.2708C12.2814 16.6085 9.54927 15.6974 6.92938 14.527C3.98858 18.9388 2.13677 24.167 2.1017 29.5197H2.09995Z" fill="white"/>
<path d="M33.4071 60.9172C31.8692 61.0276 29.4703 61.0276 27.9324 60.9172C22.6435 60.5352 16.9513 58.268 12.6585 55.1861C11.7974 54.5676 7.90619 51.391 7.72206 50.6043C7.49409 49.6267 8.16396 49.0327 9.09513 49.3516C12.8461 53.271 17.4703 56.5439 22.8136 57.823C19.2678 54.508 17.0863 50.1786 15.5572 45.6231C13.5493 45.9157 11.5853 46.7112 9.64927 47.3542C8.85489 47.2964 8.44454 46.6656 8.67426 45.8965C8.79526 45.4882 9.63699 45.2447 10.0158 45.0975C11.5695 44.4895 13.3248 44.0182 14.9592 43.6731C15.124 43.5066 14.0368 39.8044 14.0473 39.0703C14.0648 37.9385 15.4993 37.6774 15.9359 38.5937L16.9846 43.1982C19.1521 42.7129 21.3756 42.3415 23.5904 42.1277C25.5896 41.935 27.6027 41.942 29.6018 41.7703V34.8127C29.6018 34.5481 30.305 34.252 30.6154 34.2661C30.8872 34.2766 31.5062 34.6077 31.5062 34.8127V41.7703C33.8543 41.9508 36.2322 41.9788 38.5873 42.2469C40.4391 42.4589 42.3084 42.7918 44.1217 43.1982C45.0055 39.8868 45.4649 36.4755 45.6947 33.0536C45.9331 31.9848 47.7464 32.0076 47.6973 33.6178C47.6534 35.0475 47.4044 36.8101 47.1975 38.2416C46.9327 40.069 46.4697 41.8579 46.1453 43.6731C48.9318 44.2705 51.6604 45.2044 54.2382 46.4081C57.0878 41.949 58.9852 36.7768 59.0028 31.4224H49.1826C48.9178 31.4224 48.6214 30.7198 48.6354 30.4097C48.646 30.1381 48.9774 29.5196 49.1826 29.5196H59.0028C59.0817 27.2121 58.503 24.9572 58.0716 22.711C58.2698 21.7158 59.6183 21.5756 60.0146 22.5025C60.9843 24.7697 61.1667 30.1749 61.0317 32.6769C60.2513 47.0213 47.7885 59.8799 33.4106 60.9189L33.4071 60.9172ZM29.5965 43.7922C25.5825 44.0217 21.4809 44.1584 17.5703 45.1693C19.501 50.8847 23.0503 57.7757 29.5965 58.897V43.7922ZM31.501 43.7922V58.897C38.077 57.7774 41.5456 50.8724 43.5272 45.1693C43.5044 44.9188 39.0432 44.3389 38.568 44.2828C37.2475 44.1269 35.8604 43.9779 34.5347 43.9131C33.5264 43.8623 32.4847 44.0322 31.501 43.7922ZM52.9283 47.9552C52.0655 47.5732 45.9226 45.3586 45.5438 45.6249C43.9954 50.1716 41.8087 54.4993 38.2874 57.8247C43.308 56.5702 48.2304 53.455 51.6797 49.6214C51.8621 49.4182 53.0177 48.0813 52.9283 47.9569V47.9552Z" fill="white"/>
<path d="M0.0761719 46.6464V44.7436C0.830223 42.7217 2.42951 41.5863 4.64782 41.8999C5.12656 41.9683 5.54918 42.4291 5.97355 42.1347L21.2703 26.8512C21.5473 26.3957 21.0861 25.9611 21.0248 25.418C20.3514 19.396 29.4578 19.5204 28.6336 25.5266C28.581 25.9068 28.1234 26.5814 28.2216 26.7829L35.1869 33.7422C36.7651 33.0904 38.3469 33.1272 39.7568 34.1469L54.1854 19.7657C54.2994 19.5362 53.9487 19.2839 53.833 19.0421C51.7058 14.597 57.3542 11.2576 60.1916 14.7109C62.6571 17.714 59.6322 21.9488 55.9654 20.838C50.8729 25.7246 45.7962 30.7987 40.9054 35.885C41.9611 39.2858 38.2452 42.3275 35.1746 40.4194C33.2982 39.2543 32.9914 37.0291 33.8208 35.1053L26.8555 28.146C26.6556 28.0479 25.9787 28.5052 25.5982 28.5577C24.6407 28.6891 23.7323 28.5367 22.8678 28.132L7.27823 43.6678C9.62807 49.066 2.14543 52.1234 0.0761719 46.6446V46.6464ZM57.1718 15.2926C54.7536 15.3399 54.8203 19.0579 57.2525 19.0088C59.6707 18.9615 59.6041 15.2436 57.1718 15.2926ZM24.795 22.9037C22.3768 22.951 22.4434 26.669 24.8757 26.6199C27.3079 26.5709 27.2273 22.8547 24.795 22.9037ZM37.1755 35.2735C34.7572 35.3208 34.8239 39.0388 37.2561 38.9897C39.6744 38.9424 39.6077 35.2245 37.1755 35.2735ZM3.84467 43.836C1.42645 43.8833 1.49309 47.6013 3.92534 47.5522C6.34356 47.5049 6.27692 43.787 3.84467 43.836Z" fill="white"/>
</svg>
