<svg width="68" height="58" viewBox="0 0 68 58" fill="none" xmlns="http://www.w3.org/2000/svg">
<path d="M68 29.6105C67.2093 32.1329 64.9435 33.6333 62.293 32.8592C60.7878 32.4199 59.9385 31.2313 59.2897 29.8939H51.23L48.7568 36.3736H58.3784C58.8801 36.3736 59.5893 37.0662 59.506 37.6331L59.5006 49.1453C64.6598 50.8441 63.1617 58.4664 57.7277 57.8393C53.0259 57.2955 52.5685 50.4792 57.1161 49.2357V38.8925H47.1629C44.8794 42.6195 41.2024 45.7141 37.3002 47.668C36.7133 47.962 34.4635 49.0018 33.9618 48.9806C33.5221 48.9611 32.0453 48.2844 31.5471 48.0648C27.1431 46.1251 23.303 42.9242 20.688 38.8925H11.3323V49.1684C15.3249 50.5111 15.6139 56.1689 11.5557 57.6126C7.47441 59.0651 3.94808 54.3532 6.44435 50.9149C7.09146 50.0239 7.84141 49.6378 8.79169 49.1506L8.81828 37.5091C8.86438 36.9192 9.51504 36.3736 10.07 36.3736H19.2927L16.823 29.8691L8.75978 29.8956C8.18181 31.0524 7.48328 32.1489 6.24578 32.6874C1.04759 34.9512 -2.46101 27.4972 2.12907 24.8614C4.71753 23.3752 7.84318 24.7072 8.74205 27.4901H16.2397L15.3107 20.8598C15.1192 20.6632 10.6302 20.982 9.80934 20.8527C9.33598 20.7783 8.96898 20.3992 8.86438 19.9404L8.78992 8.74527C7.90523 8.27585 7.19252 7.94814 6.55427 7.13331C3.82575 3.64013 7.42832 -1.26308 11.6425 0.32586C15.6174 1.82445 15.2185 7.36359 11.3287 8.72756V18.4737H15.0448C14.9083 16.4668 14.5093 14.4102 14.7469 12.4085C15.2185 11.3014 17.252 12.0613 18.1651 12.1091C23.8703 12.3996 28.0012 10.8036 32.0967 6.93845C32.6427 6.42298 33.0133 5.46466 33.9582 5.47529C34.6656 5.48414 36.1832 7.27502 36.8073 7.80289C40.284 10.7523 44.2872 12.5254 48.95 12.242C50.379 12.1552 53.3291 10.9489 53.4053 13.0993L52.9994 18.4737H57.1125V8.66201C51.2584 6.81446 54.2333 -1.80335 59.9332 0.340031C63.8992 1.83154 63.4596 7.50175 59.4953 8.75058L59.4687 19.967C59.357 20.3921 59.0929 20.7765 58.6301 20.8509C57.7756 20.9909 52.9692 20.6827 52.7458 20.874L51.6697 27.4883H59.3003C60.7523 23.1112 66.6756 23.2388 67.9929 27.6212V29.6105H68ZM9.70829 2.45861C7.59852 2.76506 7.48682 6.02619 9.70829 6.37692C12.7595 6.85874 12.6903 2.02639 9.70829 2.45861ZM58.0149 2.45861C55.9388 2.75975 55.7775 6.02442 58.0149 6.37692C61.0661 6.85874 60.997 2.02639 58.0149 2.45861ZM50.8789 14.3623C45.5017 15.4269 40.0198 13.4146 35.8216 10.1163C35.5432 9.89667 34.1107 8.51499 33.9777 8.53802C32.6055 9.96576 31.1233 11.211 29.3841 12.1782C25.6362 14.2596 21.4237 14.8884 17.1723 14.4952C17.9382 25.0544 19.2111 37.1601 28.6767 43.6416C30.3486 44.7859 32.1889 45.6805 34.0717 46.4209C37.6441 44.9347 41.0091 42.7896 43.5178 39.8225C49.3649 32.9052 50.1095 23.0315 50.8807 14.3623H50.8789ZM5.84688 27.2687C4.20161 25.6195 1.43409 27.7115 2.7815 29.7345C4.39486 32.1524 7.81836 29.2455 5.84688 27.2687ZM62.2061 27.2687C60.2346 29.2455 63.6581 32.1524 65.2715 29.7345C66.6207 27.7115 63.8514 25.6195 62.2061 27.2687ZM9.70652 51.5208C6.85744 51.9725 8.11266 56.5125 10.8908 55.2247C12.919 54.2841 11.9971 51.1576 9.70652 51.5208ZM58.0132 51.5208C55.173 51.9707 56.3909 56.5214 59.1975 55.2247C61.2239 54.2894 60.3073 51.1576 58.0132 51.5208Z" fill="white"/>
<path d="M33.6 21.0281C37.6547 20.6596 40.1846 25.554 37.5324 28.6716C36.8764 29.4422 36.0839 29.7415 35.24 30.2251C35.0131 31.7096 35.4846 33.8441 35.2187 35.2435C35.0166 36.301 33.1373 36.448 32.8607 35.2187C32.5558 33.86 33.0451 31.6794 32.8146 30.2251C31.9317 29.7185 31.1162 29.4369 30.446 28.6132C28.0934 25.7205 29.9 21.3646 33.6 21.0281ZM33.46 23.5435C30.5914 24.0766 31.8661 28.9763 34.9138 27.6478C37.1742 26.6611 36.2293 23.0298 33.46 23.5435Z" fill="white"/>
</svg>
